<mxfile host="app.diagrams.net" agent="Mozilla/5.0 (Windows NT 10.0; Win64; x64) AppleWebKit/537.36 (KHTML, like Gecko) Chrome/133.0.0.0 Safari/537.36" version="26.0.11">
  <diagram name="Page-1" id="jyLJpQagtCbsoAWuM2l8">
    <mxGraphModel dx="1131" dy="1567" grid="1" gridSize="10" guides="1" tooltips="1" connect="1" arrows="1" fold="1" page="1" pageScale="1" pageWidth="850" pageHeight="1100" math="0" shadow="0">
      <root>
        <mxCell id="0" />
        <mxCell id="1" parent="0" />
        <mxCell id="coyb47b0blv4fYRySCbK-12" style="edgeStyle=orthogonalEdgeStyle;rounded=0;orthogonalLoop=1;jettySize=auto;html=1;startArrow=classic;startFill=1;shape=link;fillColor=#f5f5f5;strokeColor=#666666;" edge="1" parent="1" source="coyb47b0blv4fYRySCbK-1" target="coyb47b0blv4fYRySCbK-2">
          <mxGeometry relative="1" as="geometry" />
        </mxCell>
        <mxCell id="coyb47b0blv4fYRySCbK-13" value="1. Send Events" style="edgeLabel;html=1;align=center;verticalAlign=middle;resizable=0;points=[];" vertex="1" connectable="0" parent="coyb47b0blv4fYRySCbK-12">
          <mxGeometry x="-0.1061" relative="1" as="geometry">
            <mxPoint as="offset" />
          </mxGeometry>
        </mxCell>
        <mxCell id="coyb47b0blv4fYRySCbK-1" value="Windows 10 client&lt;br&gt;Wazuh Agent" style="fontColor=#0066CC;verticalAlign=top;verticalLabelPosition=bottom;labelPosition=center;align=center;html=1;outlineConnect=0;fillColor=#CCCCCC;strokeColor=#6881B3;gradientColor=none;gradientDirection=north;strokeWidth=2;shape=mxgraph.networks.pc;" vertex="1" parent="1">
          <mxGeometry x="375" y="640" width="100" height="70" as="geometry" />
        </mxCell>
        <mxCell id="coyb47b0blv4fYRySCbK-14" value="" style="edgeStyle=orthogonalEdgeStyle;rounded=0;orthogonalLoop=1;jettySize=auto;html=1;shape=link;fillColor=#f5f5f5;strokeColor=#666666;" edge="1" parent="1" source="coyb47b0blv4fYRySCbK-2" target="coyb47b0blv4fYRySCbK-4">
          <mxGeometry relative="1" as="geometry" />
        </mxCell>
        <mxCell id="coyb47b0blv4fYRySCbK-15" value="1b. Send events" style="edgeLabel;html=1;align=center;verticalAlign=middle;resizable=0;points=[];" vertex="1" connectable="0" parent="coyb47b0blv4fYRySCbK-14">
          <mxGeometry x="-0.2032" y="3" relative="1" as="geometry">
            <mxPoint as="offset" />
          </mxGeometry>
        </mxCell>
        <mxCell id="coyb47b0blv4fYRySCbK-2" value="Router" style="image;aspect=fixed;html=1;points=[];align=center;fontSize=12;image=img/lib/azure2/networking/Virtual_Router.svg;" vertex="1" parent="1">
          <mxGeometry x="391" y="440" width="68" height="68" as="geometry" />
        </mxCell>
        <mxCell id="coyb47b0blv4fYRySCbK-22" value="" style="edgeStyle=orthogonalEdgeStyle;rounded=0;orthogonalLoop=1;jettySize=auto;html=1;fillColor=#d5e8d4;strokeColor=#82b366;shape=link;" edge="1" parent="1" source="coyb47b0blv4fYRySCbK-3" target="coyb47b0blv4fYRySCbK-4">
          <mxGeometry relative="1" as="geometry" />
        </mxCell>
        <mxCell id="coyb47b0blv4fYRySCbK-26" value="4.Enrich IOCS" style="edgeLabel;html=1;align=center;verticalAlign=middle;resizable=0;points=[];" vertex="1" connectable="0" parent="coyb47b0blv4fYRySCbK-22">
          <mxGeometry x="0.1684" relative="1" as="geometry">
            <mxPoint as="offset" />
          </mxGeometry>
        </mxCell>
        <mxCell id="coyb47b0blv4fYRySCbK-27" style="rounded=0;orthogonalLoop=1;jettySize=auto;html=1;shape=link;fillColor=#dae8fc;strokeColor=#6c8ebf;" edge="1" parent="1" source="coyb47b0blv4fYRySCbK-3" target="coyb47b0blv4fYRySCbK-5">
          <mxGeometry relative="1" as="geometry" />
        </mxCell>
        <mxCell id="coyb47b0blv4fYRySCbK-28" value="5.Send Alerts" style="edgeLabel;html=1;align=center;verticalAlign=middle;resizable=0;points=[];" vertex="1" connectable="0" parent="coyb47b0blv4fYRySCbK-27">
          <mxGeometry x="0.0628" y="2" relative="1" as="geometry">
            <mxPoint as="offset" />
          </mxGeometry>
        </mxCell>
        <mxCell id="coyb47b0blv4fYRySCbK-3" value="Shuffle" style="image;aspect=fixed;perimeter=ellipsePerimeter;html=1;align=center;shadow=0;dashed=0;spacingTop=3;image=img/lib/active_directory/internet_cloud.svg;" vertex="1" parent="1">
          <mxGeometry x="369" y="10" width="111.11" height="70" as="geometry" />
        </mxCell>
        <mxCell id="coyb47b0blv4fYRySCbK-16" value="" style="edgeStyle=orthogonalEdgeStyle;rounded=0;orthogonalLoop=1;jettySize=auto;html=1;shape=link;fillColor=#f5f5f5;strokeColor=#666666;" edge="1" parent="1" source="coyb47b0blv4fYRySCbK-4" target="coyb47b0blv4fYRySCbK-6">
          <mxGeometry relative="1" as="geometry" />
        </mxCell>
        <mxCell id="coyb47b0blv4fYRySCbK-17" value="2. Receive Events" style="edgeLabel;html=1;align=center;verticalAlign=middle;resizable=0;points=[];" vertex="1" connectable="0" parent="coyb47b0blv4fYRySCbK-16">
          <mxGeometry x="-0.05" relative="1" as="geometry">
            <mxPoint x="-4" as="offset" />
          </mxGeometry>
        </mxCell>
        <mxCell id="coyb47b0blv4fYRySCbK-32" style="rounded=0;orthogonalLoop=1;jettySize=auto;html=1;shape=link;fillColor=#ffe6cc;strokeColor=#d79b00;" edge="1" parent="1" source="coyb47b0blv4fYRySCbK-4" target="coyb47b0blv4fYRySCbK-11">
          <mxGeometry relative="1" as="geometry" />
        </mxCell>
        <mxCell id="coyb47b0blv4fYRySCbK-33" value="7. Send and recieve email" style="edgeLabel;html=1;align=center;verticalAlign=middle;resizable=0;points=[];" vertex="1" connectable="0" parent="coyb47b0blv4fYRySCbK-32">
          <mxGeometry x="0.1825" y="-2" relative="1" as="geometry">
            <mxPoint as="offset" />
          </mxGeometry>
        </mxCell>
        <mxCell id="coyb47b0blv4fYRySCbK-36" style="rounded=0;orthogonalLoop=1;jettySize=auto;html=1;entryX=0.414;entryY=0.971;entryDx=0;entryDy=0;shape=link;entryPerimeter=0;fillColor=#f8cecc;strokeColor=#b85450;" edge="1" parent="1" source="coyb47b0blv4fYRySCbK-4" target="coyb47b0blv4fYRySCbK-3">
          <mxGeometry relative="1" as="geometry">
            <Array as="points">
              <mxPoint x="360" y="170" />
            </Array>
          </mxGeometry>
        </mxCell>
        <mxCell id="coyb47b0blv4fYRySCbK-4" value="Internet" style="image;aspect=fixed;perimeter=ellipsePerimeter;html=1;align=center;shadow=0;dashed=0;spacingTop=3;image=img/lib/active_directory/internet_cloud.svg;" vertex="1" parent="1">
          <mxGeometry x="369" y="270" width="111.11" height="70" as="geometry" />
        </mxCell>
        <mxCell id="coyb47b0blv4fYRySCbK-5" value="TheHive" style="image;aspect=fixed;perimeter=ellipsePerimeter;html=1;align=center;shadow=0;dashed=0;spacingTop=3;image=img/lib/active_directory/internet_cloud.svg;" vertex="1" parent="1">
          <mxGeometry x="600" y="270" width="111.11" height="70" as="geometry" />
        </mxCell>
        <mxCell id="coyb47b0blv4fYRySCbK-20" style="rounded=0;orthogonalLoop=1;jettySize=auto;html=1;shape=link;fillColor=#dae8fc;strokeColor=#6c8ebf;" edge="1" parent="1" source="coyb47b0blv4fYRySCbK-6" target="coyb47b0blv4fYRySCbK-3">
          <mxGeometry relative="1" as="geometry" />
        </mxCell>
        <mxCell id="coyb47b0blv4fYRySCbK-21" value="3.Send alerts" style="edgeLabel;html=1;align=center;verticalAlign=middle;resizable=0;points=[];" vertex="1" connectable="0" parent="coyb47b0blv4fYRySCbK-20">
          <mxGeometry x="-0.0957" y="-4" relative="1" as="geometry">
            <mxPoint x="-6" as="offset" />
          </mxGeometry>
        </mxCell>
        <mxCell id="coyb47b0blv4fYRySCbK-6" value="Wazuh Manager&lt;div&gt;&lt;br&gt;&lt;/div&gt;" style="image;aspect=fixed;perimeter=ellipsePerimeter;html=1;align=center;shadow=0;dashed=0;spacingTop=3;image=img/lib/active_directory/internet_cloud.svg;" vertex="1" parent="1">
          <mxGeometry x="140" y="270" width="111.11" height="70" as="geometry" />
        </mxCell>
        <mxCell id="coyb47b0blv4fYRySCbK-11" value="Soc Analyst&lt;div&gt;&lt;br&gt;&lt;/div&gt;" style="fontColor=#0066CC;verticalAlign=top;verticalLabelPosition=bottom;labelPosition=center;align=center;html=1;outlineConnect=0;fillColor=#CCCCCC;strokeColor=#6881B3;gradientColor=none;gradientDirection=north;strokeWidth=2;shape=mxgraph.networks.pc;" vertex="1" parent="1">
          <mxGeometry x="650" y="440" width="100" height="70" as="geometry" />
        </mxCell>
        <mxCell id="coyb47b0blv4fYRySCbK-30" style="rounded=0;orthogonalLoop=1;jettySize=auto;html=1;entryX=0.567;entryY=0.057;entryDx=0;entryDy=0;entryPerimeter=0;shape=link;fillColor=#ffe6cc;strokeColor=#d79b00;" edge="1" parent="1" source="coyb47b0blv4fYRySCbK-3" target="coyb47b0blv4fYRySCbK-4">
          <mxGeometry relative="1" as="geometry">
            <Array as="points">
              <mxPoint x="490" y="190" />
            </Array>
          </mxGeometry>
        </mxCell>
        <mxCell id="coyb47b0blv4fYRySCbK-31" value="6.Send Email" style="edgeLabel;html=1;align=center;verticalAlign=middle;resizable=0;points=[];" vertex="1" connectable="0" parent="coyb47b0blv4fYRySCbK-30">
          <mxGeometry x="-0.2727" y="-2" relative="1" as="geometry">
            <mxPoint x="-1" as="offset" />
          </mxGeometry>
        </mxCell>
        <mxCell id="coyb47b0blv4fYRySCbK-34" style="rounded=0;orthogonalLoop=1;jettySize=auto;html=1;entryX=0.639;entryY=1.043;entryDx=0;entryDy=0;entryPerimeter=0;shape=link;fillColor=#f8cecc;strokeColor=#b85450;" edge="1" parent="1" source="coyb47b0blv4fYRySCbK-11" target="coyb47b0blv4fYRySCbK-4">
          <mxGeometry relative="1" as="geometry">
            <Array as="points">
              <mxPoint x="510" y="440" />
            </Array>
          </mxGeometry>
        </mxCell>
        <mxCell id="coyb47b0blv4fYRySCbK-35" value="8. Send response Action" style="edgeLabel;html=1;align=center;verticalAlign=middle;resizable=0;points=[];" vertex="1" connectable="0" parent="coyb47b0blv4fYRySCbK-34">
          <mxGeometry x="-0.0224" relative="1" as="geometry">
            <mxPoint as="offset" />
          </mxGeometry>
        </mxCell>
        <mxCell id="coyb47b0blv4fYRySCbK-37" style="edgeStyle=orthogonalEdgeStyle;rounded=0;orthogonalLoop=1;jettySize=auto;html=1;entryX=0.432;entryY=-0.029;entryDx=0;entryDy=0;entryPerimeter=0;fillColor=#f8cecc;strokeColor=#b85450;shape=link;" edge="1" parent="1" source="coyb47b0blv4fYRySCbK-3" target="coyb47b0blv4fYRySCbK-6">
          <mxGeometry relative="1" as="geometry" />
        </mxCell>
        <mxCell id="coyb47b0blv4fYRySCbK-38" value="8.Send Response Action" style="edgeLabel;html=1;align=center;verticalAlign=middle;resizable=0;points=[];" vertex="1" connectable="0" parent="coyb47b0blv4fYRySCbK-37">
          <mxGeometry x="0.1981" y="-5" relative="1" as="geometry">
            <mxPoint as="offset" />
          </mxGeometry>
        </mxCell>
        <mxCell id="coyb47b0blv4fYRySCbK-40" style="edgeStyle=orthogonalEdgeStyle;rounded=0;orthogonalLoop=1;jettySize=auto;html=1;fillColor=#f8cecc;strokeColor=#b85450;shape=link;" edge="1" parent="1" source="coyb47b0blv4fYRySCbK-6" target="coyb47b0blv4fYRySCbK-1">
          <mxGeometry relative="1" as="geometry">
            <Array as="points">
              <mxPoint x="196" y="670" />
            </Array>
          </mxGeometry>
        </mxCell>
        <mxCell id="coyb47b0blv4fYRySCbK-41" value="8.Send Response Action" style="edgeLabel;html=1;align=center;verticalAlign=middle;resizable=0;points=[];" vertex="1" connectable="0" parent="coyb47b0blv4fYRySCbK-40">
          <mxGeometry x="-0.0538" relative="1" as="geometry">
            <mxPoint as="offset" />
          </mxGeometry>
        </mxCell>
        <mxCell id="coyb47b0blv4fYRySCbK-43" style="edgeStyle=orthogonalEdgeStyle;rounded=0;orthogonalLoop=1;jettySize=auto;html=1;" edge="1" parent="1" source="coyb47b0blv4fYRySCbK-42">
          <mxGeometry relative="1" as="geometry">
            <mxPoint x="160" y="860" as="targetPoint" />
          </mxGeometry>
        </mxCell>
        <mxCell id="coyb47b0blv4fYRySCbK-42" value="Windows 10&lt;div&gt;send events&lt;/div&gt;" style="text;html=1;align=center;verticalAlign=middle;resizable=0;points=[];autosize=1;strokeColor=none;fillColor=none;" vertex="1" parent="1">
          <mxGeometry x="10" y="840" width="90" height="40" as="geometry" />
        </mxCell>
        <mxCell id="coyb47b0blv4fYRySCbK-46" style="edgeStyle=orthogonalEdgeStyle;rounded=0;orthogonalLoop=1;jettySize=auto;html=1;" edge="1" parent="1" source="coyb47b0blv4fYRySCbK-44" target="coyb47b0blv4fYRySCbK-45">
          <mxGeometry relative="1" as="geometry" />
        </mxCell>
        <mxCell id="coyb47b0blv4fYRySCbK-44" value="Wazuh Manager&lt;div&gt;Trigger Alerts &amp;amp; Perform response Actions&lt;/div&gt;" style="text;html=1;align=center;verticalAlign=middle;resizable=0;points=[];autosize=1;strokeColor=none;fillColor=none;" vertex="1" parent="1">
          <mxGeometry x="160" y="840" width="250" height="40" as="geometry" />
        </mxCell>
        <mxCell id="coyb47b0blv4fYRySCbK-50" style="rounded=0;orthogonalLoop=1;jettySize=auto;html=1;" edge="1" parent="1" source="coyb47b0blv4fYRySCbK-45" target="coyb47b0blv4fYRySCbK-47">
          <mxGeometry relative="1" as="geometry" />
        </mxCell>
        <mxCell id="coyb47b0blv4fYRySCbK-52" style="edgeStyle=orthogonalEdgeStyle;rounded=0;orthogonalLoop=1;jettySize=auto;html=1;" edge="1" parent="1" source="coyb47b0blv4fYRySCbK-45">
          <mxGeometry relative="1" as="geometry">
            <mxPoint x="780" y="860" as="targetPoint" />
          </mxGeometry>
        </mxCell>
        <mxCell id="coyb47b0blv4fYRySCbK-45" value="Shuffle&lt;div&gt;Receive Wazuh Alerts &amp;amp; Send Responsive actions&lt;/div&gt;" style="text;html=1;align=center;verticalAlign=middle;resizable=0;points=[];autosize=1;strokeColor=none;fillColor=none;" vertex="1" parent="1">
          <mxGeometry x="459" y="840" width="290" height="40" as="geometry" />
        </mxCell>
        <mxCell id="coyb47b0blv4fYRySCbK-47" value="OSINT&lt;div&gt;Enrich IOCS&lt;/div&gt;" style="text;html=1;align=center;verticalAlign=middle;resizable=0;points=[];autosize=1;strokeColor=none;fillColor=none;" vertex="1" parent="1">
          <mxGeometry x="550" y="770" width="90" height="40" as="geometry" />
        </mxCell>
        <mxCell id="coyb47b0blv4fYRySCbK-49" value="TheHive&lt;div&gt;Create alert in case management&lt;/div&gt;" style="text;html=1;align=center;verticalAlign=middle;resizable=0;points=[];autosize=1;strokeColor=none;fillColor=none;" vertex="1" parent="1">
          <mxGeometry x="495" y="920" width="200" height="40" as="geometry" />
        </mxCell>
        <mxCell id="coyb47b0blv4fYRySCbK-51" style="rounded=0;orthogonalLoop=1;jettySize=auto;html=1;entryX=0.5;entryY=0.1;entryDx=0;entryDy=0;entryPerimeter=0;" edge="1" parent="1" source="coyb47b0blv4fYRySCbK-45" target="coyb47b0blv4fYRySCbK-49">
          <mxGeometry relative="1" as="geometry" />
        </mxCell>
        <mxCell id="coyb47b0blv4fYRySCbK-53" value="Email&lt;div&gt;Send email &amp;amp; reponsive action&lt;/div&gt;" style="text;html=1;align=center;verticalAlign=middle;resizable=0;points=[];autosize=1;strokeColor=none;fillColor=none;" vertex="1" parent="1">
          <mxGeometry x="780" y="840" width="190" height="40" as="geometry" />
        </mxCell>
      </root>
    </mxGraphModel>
  </diagram>
</mxfile>
